#!OML:ASF F:\VICON\USERDATA\INSTALL\rory3\rory3.ASF
:FULLY-SPECIFIED
:DEGREES
266
root 0.811341 18.0084 24.7119 -3.54893 -1.01111 0.653061
lowerback 10.3205 1.01816 -0.581316
upperback 0.839647 1.29819 0.236604
thorax -4.93076 0.655 0.387149
lowerneck -16.7043 -3.47483 -1.82661
upperneck 21.2576 -4.84376 2.02079
head 9.57585 -2.16978 0.368975
rclavicle 7.19352e-015 -9.24349e-015
rhumerus -27.2339 -22.7737 -77.6806
rradius 23.3923
rwrist 6.69931
rhand -16.5989 20.5116
rfingers 7.12502
rthumb 9.62235 -9.24868
lclavicle 7.19352e-015 -9.24349e-015
lhumerus -33.6721 8.79558 79.8394
lradius 22.6059
lwrist 4.62577
lhand -28.941 20.3331
lfingers 7.12502
lthumb -2.29476 50.3005
rfemur -10.9057 1.98673 21.9203
rtibia 71.4462
rfoot 7.61436 -4.92112
rtoes 15.5427
lfemur -12.4722 -3.26091 -23.3103
ltibia 25.1108
lfoot -6.60649 -3.75224
ltoes 0.741492
267
root 0.82738 17.9964 24.8646 -3.56724 -0.761486 0.646365
lowerback 10.5782 0.909851 -0.536308
upperback 0.704964 1.1604 0.277166
thorax -5.21421 0.587088 0.418722
lowerneck -16.4343 -3.43748 -1.80413
upperneck 21.3502 -4.76532 1.85905
head 9.55141 -2.152 0.323883
rclavicle 1.90523e-014 -1.39149e-015
rhumerus -27.7933 -23.4841 -77.1516
rradius 22.7253
rwrist 7.62371
rhand -16.5286 20.9265
rfingers 7.12502
rthumb 9.69021 -8.83063
lclavicle 1.90523e-014 -1.39149e-015
lhumerus -33.631 8.47869 79.9859
lradius 23.1721
lwrist 4.69984
lhand -29.0828 21.4661
lfingers 7.12502
lthumb -2.43172 51.432
rfemur -12.2565 1.54791 21.8436
rtibia 72.5463
rfoot 6.17649 -5.48757
rtoes 13.4665
lfemur -12.1759 -3.56235 -23.457
ltibia 25.6012
lfoot -7.1677 -3.52195
ltoes 1.28091
268
root 0.841652 17.99 25.0179 -3.48354 -0.604629 0.443089
lowerback 10.6946 0.815054 -0.300854
upperback 0.668027 1.06712 0.364629
thorax -5.3143 0.536758 0.389409
lowerneck -16.4746 -3.40453 -1.72366
upperneck 21.4542 -4.68689 1.62789
head 9.58542 -2.13413 0.239754
rclavicle -2.90101e-015 1.98785e-015
rhumerus -28.2481 -24.3937 -76.6372
rradius 22.2657
rwrist 8.52706
rhand -16.5318 22.9447
rfingers 7.12502
rthumb 9.68712 -6.81252
lclavicle -2.90101e-015 1.98785e-015
lhumerus -33.4443 7.75544 80.4328
lradius 23.93
lwrist 5.99841
lhand -29.2384 21.7799
lfingers 7.12502
lthumb -2.58198 51.744
rfemur -13.7468 1.31186 22.0261
rtibia 73.4335
rfoot 4.59482 -6.20541
rtoes 11.2427
lfemur -11.8858 -3.88591 -23.3477
ltibia 25.8787
lfoot -7.56219 -3.13721
ltoes 1.39329
269
root 0.857128 17.9999 25.1876 -3.49418 -0.457681 0.738809
lowerback 10.8963 0.796404 -0.558291
upperback 0.60255 1.00714 0.307044
thorax -5.49887 0.513065 0.480218
lowerneck -16.3555 -3.39035 -1.76743
upperneck 21.4548 -4.65735 1.62925
head 9.56408 -2.12492 0.25341
rclavicle -1.57413e-014 7.95139e-015
rhumerus -28.695 -25.4358 -76.0635
rradius 21.7017
rwrist 9.31745
rhand -16.5203 23.6049
rfingers 7.12502
rthumb 9.69819 -6.15185
lclavicle -1.57413e-014 7.95139e-015
lhumerus -33.2678 7.53789 80.4634
lradius 24.4342
lwrist 5.64255
lhand -28.5373 21.8781
lfingers 7.12502
lthumb -1.90487 51.8493
rfemur -14.9521 1.0871 21.6077
rtibia 74.0711
rfoot 2.88062 -6.66546
rtoes 8.95983
lfemur -11.3922 -4.00242 -23.8229
ltibia 26.1356
lfoot -8.11266 -2.87321
ltoes 1.61504
270
root 0.866555 18.0066 25.3568 -3.52209 -0.407198 0.91527
lowerback 10.9885 0.770546 -0.851797
upperback 0.554779 0.938252 0.349258
thorax -5.60539 0.487492 0.699062
lowerneck -16.2049 -3.33855 -1.76448
upperneck 21.4787 -4.55595 1.49436
head 9.53892 -2.09423 0.222119
rclavicle -8.56016e-015 2.18663e-015
rhumerus -29.0688 -26.8012 -75.3032
rradius 20.8758
rwrist 10.7548
rhand -16.5225 23.474
rfingers 7.12502
rthumb 9.69605 -6.28286
lclavicle -8.56016e-015 2.18663e-015
lhumerus -32.9515 7.54652 80.5113
lradius 24.4302
lwrist 5.90095
lhand -28.1747 19.0272
lfingers 7.12502
lthumb -1.55461 49.0013
rfemur -16.1365 0.958044 21.3769
rtibia 74.5043
rfoot 1.77394 -7.06354
rtoes 9.30575
lfemur -10.8436 -3.95892 -24.1261
ltibia 26.3117
lfoot -8.72688 -2.77653
ltoes 1.78777
271
root 0.872828 18.0003 25.5144 -3.5902 -0.415733 0.723656
lowerback 11.0023 0.738399 -0.79038
upperback 0.698995 0.9119 0.503094
thorax -5.46254 0.473816 0.830301
lowerneck -16.4813 -3.32162 -1.77169
upperneck 21.6001 -4.49136 1.34145
head 9.6281 -2.07894 0.173318
rclavicle -7.47927e-015 -3.77691e-015
rhumerus -29.2472 -27.9351 -74.7538
rradius 20.3051
rwrist 12.0692
rhand -16.8189 23.2623
rfingers 7.12502
rthumb 9.41008 -6.50768
lclavicle -7.47927e-015 -3.77691e-015
lhumerus -32.374 7.09567 80.9273
lradius 24.3844
lwrist 7.29849
lhand -29.3014 16.3227
lfingers 7.12502
lthumb -2.64274 46.2861
rfemur -17.3668 0.929795 21.6208
rtibia 74.7622
rfoot 0.917519 -7.60687
rtoes 10.6102
lfemur -10.2521 -3.85863 -23.987
ltibia 26.3744
lfoot -9.26892 -2.7189
ltoes 1.66598
272
root 0.882173 17.9902 25.6757 -3.64937 -0.306247 0.718787
lowerback 11.1012 0.697225 -0.75215
upperback 0.750115 0.861652 0.509902
thorax -5.46257 0.448017 0.822991
lowerneck -16.6506 -3.32365 -1.78903
upperneck 21.8433 -4.49997 1.37044
head 9.74699 -2.07768 0.180275
rclavicle -1.61388e-014 5.96354e-015
rhumerus -29.6823 -28.8042 -74.299
rradius 20.0825
rwrist 13.003
rhand -16.9273 23.1721
rfingers 7.12502
rthumb 9.30545 -6.60252
lclavicle -1.61388e-014 5.96354e-015
lhumerus -32.0753 6.54783 81.1193
lradius 24.7512
lwrist 7.81932
lhand -29.5671 17.1
lfingers 7.12502
lthumb -2.89941 47.0601
rfemur -18.5079 0.763724 21.5985
rtibia 74.8493
rfoot -0.273089 -7.98856
rtoes 9.95461
lfemur -9.69754 -3.91044 -24.0788
ltibia 26.5851
lfoot -9.71029 -2.55208
ltoes 2.18102
273
root 0.896192 17.9797 25.8458 -3.66777 -0.143004 1.01879
lowerback 11.1439 0.61602 -1.00732
upperback 0.675467 0.71699 0.431408
thorax -5.56409 0.382919 0.90675
lowerneck -16.429 -3.25761 -1.85489
upperneck 21.9641 -4.42791 1.49567
head 9.75192 -2.03642 0.247093
rclavicle 1.90212e-014 -9.93923e-015
rhumerus -30.1917 -29.4096 -73.8745
rradius 19.8104
rwrist 13.6406
rhand -16.8979 22.9241
rfingers 7.12502
rthumb 9.33383 -6.84924
lclavicle 1.90212e-014 -9.93923e-015
lhumerus -31.8781 6.06393 81.2776
lradius 25.1516
lwrist 8.42834
lhand -29.7319 17.785
lfingers 7.12502
lthumb -3.05858 47.7428
rfemur -19.5474 0.532873 21.1799
rtibia 74.7962
rfoot -1.74881 -8.22014
rtoes 9.18878
lfemur -9.18346 -4.0547 -24.5427
ltibia 26.8922
lfoot -10.22 -2.325
ltoes 2.46804
274
root 0.905992 17.9666 26.0087 -3.71023 -0.026932 1.00859
lowerback 11.1449 0.52698 -1.04999
upperback 0.763104 0.596694 0.487554
thorax -5.4706 0.324581 1.00888
lowerneck -16.5317 -3.18251 -1.87614
upperneck 22.0075 -4.32122 1.51517
head 9.78558 -1.98533 0.269658
rclavicle -1.71452e-015 -1.98785e-015
rhumerus -30.3624 -30.0111 -73.5273
rradius 19.3876
rwrist 14.2717
rhand -16.9794 22.5803
rfingers 7.12502
rthumb 9.25518 -7.19655
lclavicle -1.71452e-015 -1.98785e-015
lhumerus -31.2947 5.49437 81.5532
lradius 25.5392
lwrist 8.94992
lhand -29.6154 19.1687
lfingers 7.12502
lthumb -2.94607 49.1281
rfemur -20.5468 0.367971 21.1608
rtibia 74.5263
rfoot -3.46745 -8.43453
rtoes 9.04664
lfemur -8.65967 -4.08189 -24.6437
ltibia 27.1409
lfoot -10.8493 -2.09963
ltoes 2.10345
275
root 0.909705 17.9559 26.1662 -3.73074 0.0732399 1.04215
lowerback 11.2251 0.463104 -1.22475
upperback 0.788031 0.494619 0.583286
thorax -5.48905 0.279681 1.22351
lowerneck -16.4677 -3.12384 -1.91141
upperneck 21.9684 -4.20302 1.40882
head 9.75577 -1.94674 0.255606
rclavicle 1.62755e-015 2.98177e-015
rhumerus -30.7093 -30.2784 -73.1854
rradius 19.1921
rwrist 14.4129
rhand -17.0882 22.4139
rfingers 7.12502
rthumb 9.15027 -7.36758
lclavicle 1.62755e-015 2.98177e-015
lhumerus -30.9067 5.46336 81.5214
lradius 25.8108
lwrist 8.03847
lhand -27.8458 21.9118
lfingers 7.12502
lthumb -1.23694 51.888
rfemur -21.5875 0.272511 21.1351
rtibia 74.0754
rfoot -5.0062 -8.70642
rtoes 8.8382
lfemur -8.15012 -3.96625 -24.7628
ltibia 27.2982
lfoot -11.3948 -1.97938
ltoes 1.77675
276
root 0.920432 17.9479 26.343 -3.77747 0.189299 1.12158
lowerback 11.1103 0.39866 -1.29276
upperback 0.799871 0.403022 0.603445
thorax -5.41017 0.235886 1.29777
lowerneck -16.0338 -3.12846 -1.86052
upperneck 21.7712 -4.19444 1.27912
head 9.60045 -1.95833 0.211662
rclavicle -1.77167e-014 6.55989e-015
rhumerus -31.4015 -30.7716 -72.6871
rradius 19.2778
rwrist 14.6101
rhand -16.7081 22.4138
rfingers 7.12502
rthumb 9.51702 -7.35128
lclavicle -1.77167e-014 6.55989e-015
lhumerus -30.7739 5.57896 81.3257
lradius 26.0978
lwrist 6.68116
lhand -25.6988 22.9358
lfingers 7.12502
lthumb 0.836652 52.914
rfemur -22.3712 0.165701 21.0029
rtibia 73.4129
rfoot -6.2323 -8.90749
rtoes 7.59292
lfemur -7.49178 -3.83912 -24.9786
ltibia 27.4705
lfoot -12.1207 -1.7855
ltoes 0.994867
277
root 0.931866 17.9371 26.5148 -3.87674 0.295948 1.35787
lowerback 10.9975 0.324302 -1.56582
upperback 0.934516 0.272463 0.604749
thorax -5.20275 0.175307 1.47365
lowerneck -15.9243 -3.10166 -1.7797
upperneck 21.6931 -4.14808 1.15373
head 9.54682 -1.94582 0.163358
rclavicle -1.06847e-014 2.78299e-015
rhumerus -31.6992 -31.3506 -72.3325
rradius 19.2257
rwrist 15.0646
rhand -16.4702 21.8728
rfingers 7.12502
rthumb 9.74657 -7.88171
lclavicle -1.06847e-014 2.78299e-015
lhumerus -30.3944 5.6339 81.2935
lradius 26.3396
lwrist 6.0788
lhand -24.6826 22.5963
lfingers 7.12502
lthumb 1.81813 52.5683
rfemur -23.0977 0.00668115 20.6734
rtibia 72.6219
rfoot -7.53173 -9.06952
rtoes 6.8424
lfemur -6.80718 -3.74389 -25.3505
ltibia 27.6078
lfoot -12.8147 -1.68308
ltoes 0.877699
278
root 0.938558 17.9194 26.6648 -3.84292 0.419881 1.56899
lowerback 11.1499 0.253283 -1.81335
upperback 0.929332 0.1445 0.593907
thorax -5.28914 0.118586 1.62188
lowerneck -16.1534 -3.08279 -1.89063
upperneck 21.9376 -4.09657 1.16627
head 9.67785 -1.92659 0.187301
rclavicle 4.98204e-015 -9.14409e-015
rhumerus -31.9026 -31.7207 -72.0871
rradius 18.9891
rwrist 15.4328
rhand -16.4361 21.4782
rfingers 7.12502
rthumb 9.77947 -8.27476
lclavicle 4.98204e-015 -9.14409e-015
lhumerus -30.0384 5.05751 81.4713
lradius 26.4521
lwrist 6.88839
lhand -26.3597 20.1505
lfingers 7.12502
lthumb 0.198377 50.1301
rfemur -24.1423 -0.141584 20.4128
rtibia 71.6983
rfoot -8.62478 -9.1797
rtoes 6.23183
lfemur -6.40568 -3.64684 -25.6453
ltibia 27.7867
lfoot -13.3533 -1.61794
ltoes 0.731031
279
root 0.940685 17.9004 26.8083 -3.80165 0.671041 1.61597
lowerback 11.4936 0.132231 -1.90132
upperback 0.812304 -0.033619 0.605112
thorax -5.59689 0.037495 1.71282
lowerneck -16.1247 -3.06364 -1.98805
upperneck 21.9928 -4.06714 1.25286
head 9.69579 -1.91116 0.237379
rclavicle -3.516e-015 -5.56597e-015
rhumerus -32.3089 -31.6304 -72.0808
rradius 19.0881
rwrist 15.0696
rhand -16.2513 21.7855
rfingers 7.12502
rthumb 9.95774 -7.95896
lclavicle -3.516e-015 -5.56597e-015
lhumerus -29.8769 4.61174 81.5441
lradius 26.6874
lwrist 7.2643
lhand -27.9651 18.3708
lfingers 7.12502
lthumb -1.3522 48.3462
rfemur -25.1264 -0.352598 20.3673
rtibia 70.5559
rfoot -9.37629 -9.31994
rtoes 5.40381
lfemur -6.08519 -3.69171 -25.7328
ltibia 27.9588
lfoot -13.7019 -1.60043
ltoes 0.345373
280
root 0.941084 17.8891 26.9599 -3.76023 0.821219 1.24261
lowerback 11.6432 0.0111837 -1.57935
upperback 0.851176 -0.146129 0.752123
thorax -5.63493 -0.0238334 1.70408
lowerneck -16.2488 -3.03932 -2.10947
upperneck 21.8839 -4.03722 1.42138
head 9.68677 -1.88762 0.318651
rclavicle -1.63625e-014 5.96354e-015
rhumerus -32.3496 -31.2501 -72.3898
rradius 19.2883
rwrist 14.1559
rhand -15.9806 23.017
rfingers 7.12502
rthumb 10.2188 -6.71477
lclavicle -1.63625e-014 5.96354e-015
lhumerus -29.2967 4.34398 81.6341
lradius 26.8786
lwrist 7.33048
lhand -27.0183 21.2491
lfingers 7.12502
lthumb -0.437789 51.2284
rfemur -25.9583 -0.423456 20.831
rtibia 69.1757
rfoot -9.92575 -9.53094
rtoes 5.169
lfemur -5.70933 -3.81442 -25.3585
ltibia 28.0152
lfoot -14.072 -1.49337
ltoes 0.353401
